<svg xmlns="http://www.w3.org/2000/svg" viewBox="0 0 151.09 164.51"><defs><style>.cls-1,.cls-14,.cls-16{fill:#3a3a3a;}.cls-1,.cls-10,.cls-14,.cls-15,.cls-17,.cls-2,.cls-3,.cls-4,.cls-7,.cls-9{stroke:#000;}.cls-1,.cls-10,.cls-14,.cls-15,.cls-17,.cls-2,.cls-3,.cls-7,.cls-9{stroke-miterlimit:10;}.cls-1{stroke-width:3px;}.cls-2,.cls-5{fill:#841515;}.cls-3,.cls-4{fill:#e2e2e2;}.cls-4{stroke-linecap:round;stroke-linejoin:round;}.cls-6{fill:#ce2828;}.cls-7{fill:none;}.cls-8{fill:#6a6b6d;}.cls-13,.cls-9{fill:#5b0808;}.cls-10{fill:#787b7f;}.cls-11{fill:#9ea4a8;}.cls-12{fill:#191919;}.cls-15{fill:#a5a5a5;}.cls-17{fill:#232323;stroke-width:0.75px;}</style></defs><title>Asset 4</title><g id="Layer_2" data-name="Layer 2"><g id="behind_face"><path id="bill" class="cls-1" d="M111.83,32.57c-6.52-1.74-20.3-7.4-25.72-.36C88,32.68,111.67,40,111.67,40S124,36.82,111.83,32.57Z"/></g><g id="Face"><path d="M75.37,32h.18c-14,0-32,5-32,5-25,7-36-16-38-29-23,48,33,52,33,52-1,3,2,7,2,7s-4,7-7,13,1,22,7,20,6,4,6,4c-2,31,15,34,29,34s31-3,29-34c0,0,0-6,6-4s10-14,7-20-7-13-7-13,3-4,2-7c0,0,56-4,33-52-2,13-13,36-38,29,0,0-18-5-32-5h-.18Z"/><g id="lower_mouth"><path class="cls-2" d="M75.54,126.5s8.57,0,14.28-4c1.9-7,7.62-15,7.62-15,3.81,27-11.43,27-21.9,27-11,0-27,0-23-27,0,0,6,8,8,15,6,4,15,4,15,4"/><path id="lower_teeth" class="cls-3" d="M80,117.5s4.5,8,3.6-8a19,19,0,0,1,5.4,13s-3.6,4-13.5,4c-11,0-15-4-15-4,0-8,6-13,6-13-1,16,4,8,4,8C70.54,122.81,80,122.81,80,117.5Z"/></g><g id="upper_mouth"><path id="upper_teeth" class="cls-4" d="M85.79,94.94c2.05-3,9.23-2,9.23-2-1,22-9.23,26-9.23,26v-18c0,1-4.62,8.5-4.62,5.5a11.88,11.88,0,0,0-1-5H70a12.13,12.13,0,0,0-1,5c0,3-4.5-4.5-4.5-5.5v18s-8-4-9-26c0,0,7-1,9,2Z"/><path class="cls-2" d="M75.54,96.5c2.51,0,4.94-1,7.29-1,.77,0,3.11.4,3.71,0,4-2,6-2,9,1,2,2,3.82-3.65,6-4a28.86,28.86,0,0,1,8,0c1.36-.72,3.34-4.71,2-8,0,0-6-15-9-18s1,13,1,16c-12.5-4.37-14.13,1-14.57,2s-3.69-4.3-10.83-11.36c-.64-.63-1,1.5-2.5,1.5s-1.86-2.13-2.5-1.5c-7.13,7.06-10.64,12.3-11,11.36s-2.07-6.35-14.57-2c0-3,4-19,1-16s-9,18-9,18c-1.34,3.29.64,7.28,2,8a28.86,28.86,0,0,1,8,0c2.18.35,4,6,6,4,3-3,5-3,9-1,.6.4,2.94,0,3.71,0C70.6,95.5,73,96.5,75.54,96.5Z"/></g><path id="top_head" class="cls-5" d="M75.73,36c-11,0-25,1-33,8-2,5-2,7-2,12,0,0,25.44,3.95,35,11,9.56-7.05,35-11,35-11,0-5,0-7-2-12C100.73,37,86.73,36,75.73,36Z"/><g id="eyebrows"><path class="cls-5" d="M47.41,63.12c-4.11-.37-5.33-8.28,4-6.7S76,64.76,70.69,69.63c-4.94.77-2.63-1.49-8.67-3.71A56.29,56.29,0,0,0,47.41,63.12Z"/><path class="cls-5" d="M103.69,63.12c4.11-.37,5.33-8.28-4-6.7S75.1,64.76,80.42,69.63c4.94.77,2.63-1.49,8.67-3.71A56.29,56.29,0,0,1,103.69,63.12Z"/></g><g id="horns"><path class="cls-5" d="M112.81,42.74c11.55,0,31.74-5.15,33.42-26.74,6.68,25.52-11.55,36.46-29.78,39.5C114,52.29,112.86,48,112.81,42.74Z"/><path class="cls-5" d="M38.09,42.74C26.54,42.74,6.35,37.59,4.66,16-2,41.53,16.21,52.46,34.44,55.5,36.87,52.29,38,48,38.09,42.74Z"/></g><path id="nose" d="M75.64,77.62s7.91,5.13,6.15,12-6.15-1.71-6.15-1.71-4.27,8.54-6,1.71S75.64,77.62,75.64,77.62Z"/><g id="eyes"><path id="eye_left" class="cls-6" d="M52.36,69.33s8.28,5.43,15,4.91C67.4,74.25,49.19,82.82,52.36,69.33Z"/><path id="eye_right" class="cls-6" d="M99.8,69.2s-8.28,5.43-15,4.91C84.76,74.11,103,82.69,99.8,69.2Z"/></g></g><g id="Headphones"><g id="Headphone_left_shadow"><g id="stem_shadow"><path d="M33.82,130a6.93,6.93,0,0,1-.66-5.48A10.83,10.83,0,0,1,33.1,120c.72-3.37,3.41-7.79,12.14-9.73l.9-.2,1.74,5.55-.85.35c-1.24.51-5,2.48-5.89,4.72a2.35,2.35,0,0,0-.15.53,5.68,5.68,0,0,1,2.92,3.24l.79,2.19L35.39,133Z"/><path d="M35.11,129.28c-1.54-3.6-1.16-9.94,1.47-13,2.49-2.88,6.38-4,10-4.81l-1.85-1L46.43,116l1-1.85c-3.08,1.28-6.94,3.18-7.93,6.65a1.53,1.53,0,0,0,.69,1.69c1.8,1.08,2.36,2.7,3,4.53l.69-1.69-9.31,6.35,2.05.54-1.58-2.94c-.91-1.7-3.5-.19-2.59,1.51l1.58,2.94a1.51,1.51,0,0,0,2.05.54l9.31-6.35a1.53,1.53,0,0,0,.69-1.69c-1-2.7-1.84-4.78-4.4-6.32l.69,1.69c.65-2.29,3.78-3.71,5.84-4.56a1.53,1.53,0,0,0,1-1.85l-1.74-5.55a1.54,1.54,0,0,0-1.85-1c-4.9,1.08-10.09,3-12.75,7.6-2.39,4.1-2.27,10.35-.46,14.59C33.28,132.57,35.86,131,35.11,129.28Z"/></g><g id="stem"><path d="M35.61,129c-.14-.29-1.2-2.64-.33-4.43a8.56,8.56,0,0,1-.66-5c.42-2.5,2.34-6.91,10.53-8.32l.86-.15,1.61,5.17-2.1-1.16A9.68,9.68,0,0,0,39.37,119a3.51,3.51,0,0,0-.33,3.28,3.73,3.73,0,0,1,2.8,2.62l.21.67-5.9,4.56Z"/></g><g id="base"><path d="M59.12,164.26a24,24,0,0,1-4.07-.37,9,9,0,0,1-1.86.22c-2.26,0-5.15-1.1-11.94-6.45-6-2.58-10.67-10.35-8.14-17.61a27,27,0,0,1-.37-8.81l0-.23,3.46-4.62a14.79,14.79,0,0,1,1-5.2c1.72-4.74,10-6.71,14.14-6.71a10.73,10.73,0,0,1,1.26.07l.13,0,.12,0c10.3,4.07,17.89,18.82,19.8,30.63,1.12,6.92.21,12-2.57,14.43C67.43,162.72,63.73,164.26,59.12,164.26Z"/></g><g id="small_cylinder"><path d="M42.05,156.48a3.32,3.32,0,0,1-.58,0l-.18,0-.16-.1c-5.9-3.58-8.06-12.81-7.34-14.16a11.61,11.61,0,0,1,2-2.32l1.09-1,.52,1.38a103.06,103.06,0,0,0,6.86,14.46l.47.78L44,156A3.6,3.6,0,0,1,42.05,156.48Z"/></g><g id="medium_cylinder"><path d="M52.23,162.58a6.8,6.8,0,0,1-1.19-.1l-.12,0-.11-.05c-9.41-4.31-14-15.67-15.6-20.35-1.32-4-2.28-8.66-1.56-10A25.2,25.2,0,0,1,38,127.24l1.54-1.34.12,2a44.11,44.11,0,0,0,16.22,32.15l1.17.82-1.18.82a7.28,7.28,0,0,1-3.65.85Z"/><path class="cls-7" d="M52.23,162.58a6.8,6.8,0,0,1-1.19-.1l-.12,0-.11-.05c-9.41-4.31-14-15.67-15.6-20.35-1.32-4-2.28-8.66-1.56-10A25.2,25.2,0,0,1,38,127.24l1.54-1.34.12,2a44.11,44.11,0,0,0,16.22,32.15l1.17.82-1.18.82a7.28,7.28,0,0,1-3.65.85Z"/></g><g id="big_cyllinder"><path d="M59,162.12a37.6,37.6,0,0,1-3.8-.21l-.24,0-.21-.14c-12.35-8.16-21.15-31.32-15.69-41.31l.11-.21.19-.13c1.59-1.11,7-4.27,10.61-4.34h.22c2.71,0,5.55,1.5,8.44,4.45,6.83,7,12.43,20.76,12.23,30.07.08,4-.83,6.91-2.78,8.9s-4.92,3-9.07,3Z"/><path class="cls-7" d="M59,162.12a37.6,37.6,0,0,1-3.8-.21l-.24,0-.21-.14c-12.35-8.16-21.15-31.32-15.69-41.31l.11-.21.19-.13c1.59-1.11,7-4.27,10.61-4.34h.22c2.71,0,5.55,1.5,8.44,4.45,6.83,7,12.43,20.76,12.23,30.07.08,4-.83,6.91-2.78,8.9s-4.92,3-9.07,3Z"/></g><g id="outer_circle"><path d="M65.78,159.15c-5,0-10.64-5.75-15.09-15.33-4.56-9.82-7-22.35-2.86-27.3l.16-.19.23-.09a5.09,5.09,0,0,1,2-.38c7.58,0,17.62,15.88,20.21,28.41,1.59,7.68.1,12.93-4.21,14.8l-.19.08Z"/></g><g id="inner_circle"><path d="M63.13,151c-3.18,0-6.72-3.56-9.47-9.49s-4.4-13.65-1.67-16.9l.16-.19.23-.09a3.46,3.46,0,0,1,1.33-.26c4.75,0,11,9.77,12.59,17.47,1,4.84,0,8.17-2.77,9.38l-.19.08Z"/></g></g><g id="Headphone_right_shadow"><g id="stem_shadow-2" data-name="stem_shadow"><path d="M105,126.86l.74-2.12a5.64,5.64,0,0,1,2.8-3.24c-.3-2.41-4.27-4.67-5.75-5.31l-.84-.36,1.8-5.52.89.21c8.34,1.93,11,6.28,11.7,9.59a11.1,11.1,0,0,1,0,4.72,7.52,7.52,0,0,1-.63,5.43l-1.59,3.07Z"/><path d="M106.4,127.26c.65-1.87,1-3.28,2.85-4.47a1.53,1.53,0,0,0,.69-1.69c-1-3.35-4.23-5.24-7.28-6.57l.69,1.69,1.8-5.52-1.85,1c4.57,1.05,9.65,2.93,11.27,7.79,1.42,4.25.14,9.22-1.82,13l2.05-.54-9.1-6.46c-1.58-1.12-3.08,1.48-1.51,2.59l9.1,6.46a1.51,1.51,0,0,0,2.05-.54c2.51-4.86,3.86-10.21,2-15.66-1.94-5.73-7.8-8.3-13.26-9.56a1.54,1.54,0,0,0-1.85,1l-1.8,5.52a1.5,1.5,0,0,0,.69,1.69c2.23,1,5.13,2.25,5.9,4.77l.69-1.69c-2.45,1.56-3.31,3.62-4.23,6.26C102.87,128.29,105.77,129.07,106.4,127.26Z"/></g><g id="stem-2" data-name="stem"><path d="M107.36,125.86l.21-.67a3.73,3.73,0,0,1,2.8-2.62,3.51,3.51,0,0,0-.33-3.28,9.7,9.7,0,0,0-6.13-3.93h0l-2.1,1.16,1.61-5.17.86.15c8.19,1.41,10.11,5.82,10.53,8.33a8.56,8.56,0,0,1-.66,5c.87,1.78-.19,4.13-.33,4.43l-.53,1.12Z"/></g><g id="base-2" data-name="base"><path d="M90.29,164.51c-4.6,0-8.3-1.54-11-4.58-2.78-2.39-3.69-7.51-2.57-14.43,1.91-11.81,9.5-26.56,19.8-30.63l.12,0,.13,0a10.74,10.74,0,0,1,1.26-.07c4.1,0,12.42,2,14.14,6.71a14.82,14.82,0,0,1,1,5.2l3.46,4.62,0,.23a26.73,26.73,0,0,1-.37,8.81c2.53,7.26-2.19,15-8.14,17.61-6.78,5.35-9.68,6.45-11.94,6.45h0a9,9,0,0,1-1.86-.22A24,24,0,0,1,90.29,164.51Z"/></g><g id="small_cylinder-2" data-name="small_cylinder"><path d="M107.36,156.73a3.6,3.6,0,0,1-1.93-.5l-.73-.54.47-.78A103.44,103.44,0,0,0,112,140.45l.52-1.38,1.09,1a11.55,11.55,0,0,1,2,2.32c.71,1.36-1.44,10.58-7.34,14.16l-.16.1-.18,0A3.33,3.33,0,0,1,107.36,156.73Z"/></g><g id="medium_cylinder-2" data-name="medium_cylinder"><path d="M97.18,162.83a7.27,7.27,0,0,1-3.65-.85l-1.18-.82,1.17-.82a44.23,44.23,0,0,0,16.22-32.15l.12-2,1.54,1.34a25.22,25.22,0,0,1,4.37,4.84c.72,1.31-.24,6-1.56,10-1.56,4.68-6.19,16-15.6,20.36l-.11.05-.12,0A6.79,6.79,0,0,1,97.18,162.83Z"/><path class="cls-7" d="M97.18,162.83a7.27,7.27,0,0,1-3.65-.85l-1.18-.82,1.17-.82a44.23,44.23,0,0,0,16.22-32.15l.12-2,1.54,1.34a25.22,25.22,0,0,1,4.37,4.84c.72,1.31-.24,6-1.56,10-1.56,4.68-6.19,16-15.6,20.36l-.11.05-.12,0A6.79,6.79,0,0,1,97.18,162.83Z"/></g><g id="big_cyllinder-2" data-name="big_cyllinder"><path d="M90.4,162.37c-4.16,0-7.12-1-9.07-2.95s-2.86-4.91-2.78-8.94c-.21-9.27,5.39-23,12.23-30,2.89-3,5.73-4.45,8.44-4.45h.23c3.63.07,9,3.24,10.59,4.34l.19.13.11.21c5.46,10-3.34,33.15-15.69,41.31l-.2.14-.25,0A37.34,37.34,0,0,1,90.4,162.37Z"/><path class="cls-7" d="M90.4,162.37c-4.16,0-7.12-1-9.07-2.95s-2.86-4.91-2.78-8.94c-.21-9.27,5.39-23,12.23-30,2.89-3,5.73-4.45,8.44-4.45h.23c3.63.07,9,3.24,10.59,4.34l.19.13.11.21c5.46,10-3.34,33.15-15.69,41.31l-.2.14-.25,0A37.34,37.34,0,0,1,90.4,162.37Z"/></g><g id="outer_circle-2" data-name="outer_circle"><path d="M83.23,159.32c-4.31-1.87-5.8-7.12-4.21-14.8,2.6-12.52,12.64-28.41,20.21-28.41a5.09,5.09,0,0,1,2,.38l.23.09.16.19c4.14,4.94,1.7,17.47-2.86,27.29-4.44,9.58-10.08,15.31-15.09,15.33h-.21Z"/></g><g id="inner_circle-2" data-name="inner_circle"><path d="M85.88,151.14c-2.79-1.21-3.78-4.54-2.77-9.38,1.6-7.7,7.85-17.47,12.6-17.47a3.46,3.46,0,0,1,1.33.26l.23.09.16.19c2.73,3.25,1,11-1.67,16.9s-6.29,9.48-9.47,9.49h-.21Z"/></g></g><g id="Headphone_left"><g id="stem_shadow-3" data-name="stem_shadow"><path d="M34.66,129.54c-.17-.32-1.38-2.8-.47-4.91a10,10,0,0,1-.1-4.57c.67-3,3.11-7,10.95-8.84L46.28,115c-.07,0-6.81,3-6.35,6.88a4.63,4.63,0,0,1,2.85,2.91l.49,1.42-7.55,5.36Z"/><path d="M36,128.78c-.72-1.51-.23-3-.32-4.55-.11-2-.36-3.81.57-5.67,1.74-3.5,5.7-5,9.24-5.89l-1.85-1,1.24,3.79.69-1.69c-3.33,1.5-7.09,4.18-7.1,8.18a1.48,1.48,0,0,0,.74,1.3,5.34,5.34,0,0,1,2.65,3.43l.69-1.69L35,130.29l2.05.54-1.06-2c-.89-1.72-3.48-.2-2.59,1.51l1.06,2a1.51,1.51,0,0,0,2.05.54L44,127.52a1.54,1.54,0,0,0,.69-1.69A13.09,13.09,0,0,0,43.54,123c-.6-.92-2-1.56-1.84-2.51.27-1.8,3.81-3.45,5.34-4.14a1.5,1.5,0,0,0,.69-1.69l-1.24-3.79a1.53,1.53,0,0,0-1.85-1c-4.64,1.19-9.38,3.38-11.38,8-1.46,3.4-1.49,9.13.1,12.49C34.19,132,36.78,130.52,36,128.78Z"/></g><g id="stem-3" data-name="stem"><path class="cls-8" d="M36.52,128.62s-1.27-2.67,0-4c-.94-.51-4-10.15,8.82-12.36l.61,2c-1.31-.72-10.54,3.38-7.56,9.05a2.74,2.74,0,0,1,2.52,2Z"/></g><path id="base-3" data-name="base" d="M38.16,121.59c1.57-4.52,10.68-6.49,14.36-6,15.19,6,24.56,37,16.89,43.42-2.46,2.81-6.81,5.28-14.38,3.91-2.5.52-4.55.82-13.27-6.07-5.56-2.33-10.19-9.82-7.62-16.66a26.15,26.15,0,0,1-.42-8.71l3.5-4.68S37.28,123.28,38.16,121.59Z"/><path id="small_cylinder-3" data-name="small_cylinder" class="cls-9" d="M36.46,140.55a11.12,11.12,0,0,0-1.78,2.05c-.43.81,1.39,9.46,7,12.84a2.87,2.87,0,0,0,1.74-.28A103.29,103.29,0,0,1,36.46,140.55Z"/><path id="medium_cylinder-3" data-name="medium_cylinder" class="cls-9" d="M38.67,128a24.69,24.69,0,0,0-4.15,4.57c-1,1.81,3.5,22.9,16.7,28.94a7,7,0,0,0,4.09-.59S40,150.16,38.67,128Z"/><path id="big_cyllinder-3" data-name="big_cyllinder" class="cls-10" d="M39.95,120.92c-5,9.07,2.9,31.76,15.37,40,8.48.87,14.74-.66,14.55-10.66.28-12.58-10.51-33.8-19.86-33.5C46.67,116.81,41.47,119.86,39.95,120.92Z"/><path id="outer_circle-3" data-name="outer_circle" class="cls-11" d="M48.6,117.16c-6.78,8.08,5.89,40.94,17.18,41C78.76,152.52,58.66,113,48.6,117.16Z"/><path id="inner_circle-3" data-name="inner_circle" class="cls-12" d="M52.76,125.22c-4.09,4.88,3.56,24.72,10.38,24.75C71,146.57,58.83,122.7,52.76,125.22Z"/></g><g id="Headphone_right"><g id="stem_shadow-4" data-name="stem_shadow"><path d="M106.14,126.48l.49-1.42a4.63,4.63,0,0,1,2.85-2.91c.46-3.9-6.28-6.85-6.36-6.88l1.24-3.79c7.83,1.81,10.28,5.8,10.94,8.83a10,10,0,0,1-.09,4.57c.91,2.11-.3,4.58-.47,4.91l-1.06,2Z"/><path d="M107.59,126.88a5.35,5.35,0,0,1,2.65-3.43,1.48,1.48,0,0,0,.74-1.3c0-4-3.77-6.68-7.1-8.18l.69,1.69,1.24-3.79-1.85,1c4.1,1.05,8.7,3,9.83,7.51a16.2,16.2,0,0,1-1.4,10.64l2.05-.54-7.55-5.36c-1.58-1.12-3.08,1.48-1.51,2.59l7.55,5.36a1.51,1.51,0,0,0,2.05-.54,18.35,18.35,0,0,0,1.63-13.22c-1.51-5.43-6.8-8-11.85-9.34a1.53,1.53,0,0,0-1.85,1l-1.24,3.79a1.51,1.51,0,0,0,.69,1.69c1.54.69,5,2.32,5.34,4.14.17,1-1.1,1.46-1.72,2.36a12.17,12.17,0,0,0-1.29,3C104.06,127.91,107,128.69,107.59,126.88Z"/></g><g id="stem-4" data-name="stem"><path class="cls-8" d="M112.89,128.87s1.27-2.67,0-4c.94-.51,4-10.15-8.82-12.36l-.61,2c1.31-.72,10.54,3.38,7.56,9.05a2.74,2.74,0,0,0-2.52,2Z"/></g><path id="base-4" data-name="base" d="M111.24,121.84c-1.57-4.52-10.68-6.49-14.36-6-15.19,6-24.56,37-16.89,43.42,2.46,2.81,6.81,5.28,14.38,3.91,2.5.52,4.55.82,13.27-6.07,5.56-2.33,10.19-9.82,7.62-16.66a26.15,26.15,0,0,0,.42-8.71l-3.5-4.68S112.13,123.53,111.24,121.84Z"/><path id="small_cylinder-4" data-name="small_cylinder" class="cls-13" d="M113,140.81a11.12,11.12,0,0,1,1.78,2.05c.43.81-1.39,9.46-7,12.84a2.87,2.87,0,0,1-1.74-.28A103.29,103.29,0,0,0,113,140.81Z"/><path id="medium_cylinder-4" data-name="medium_cylinder" class="cls-9" d="M110.74,128.25a24.69,24.69,0,0,1,4.15,4.57c1,1.81-3.5,22.9-16.7,28.94a7,7,0,0,1-4.09-.59S109.43,150.41,110.74,128.25Z"/><path id="big_cyllinder-4" data-name="big_cyllinder" class="cls-10" d="M109.46,121.17c5,9.07-2.9,31.76-15.37,40-8.48.87-14.74-.66-14.55-10.66C79.26,137.92,90,116.7,99.41,117,102.74,117.07,107.94,120.11,109.46,121.17Z"/><path id="outer_circle-4" data-name="outer_circle" class="cls-11" d="M100.81,117.41c6.78,8.08-5.89,40.94-17.18,41C70.65,152.77,90.75,113.25,100.81,117.41Z"/><path id="inner_circle-4" data-name="inner_circle" class="cls-12" d="M96.65,125.47c4.09,4.88-3.56,24.72-10.38,24.75C78.44,146.82,90.58,123,96.65,125.47Z"/></g></g><g id="Hat"><g id="back_shadow"><path d="M81.69,51.62c-14.67,0-33.49-1.37-40.15-4.39L41.1,47l-.3-.39c-.7-.9-6.86-16-1-27.91C44,10.12,53.16,5.75,67,5.75h.4C69.14,2.26,72.33,0,75.68,0s6.17,2.12,7.92,5.86l5.48.77A26.17,26.17,0,0,1,94.55,6a16.76,16.76,0,0,1,13.39,6c5.53,6.68,6.81,18.14,3.79,34.06l-.17.88-.77.46c-4.54,2.72-7.73,3-13.52,3.49A129.08,129.08,0,0,1,81.69,51.62Z"/></g><path id="back_hat" class="cls-14" d="M42.38,45C38.21,28.91,38.73,10.08,65.27,9.3c31.4-1.56,33.26.26,30.4,38.53-3.06.57-5.43.47-8.22.74C86.16,35.61,70,27,62.58,27.8c-6.79.75-15-.09-14.88,18.09C47.71,46.09,42.41,45.27,42.38,45Z"/><path id="front_hat" class="cls-15" d="M89.48,10.08c5.06-.83,27.79-6.15,19.83,35-3.55,1.59-6.66,2.3-13,2.67C96.37,47.18,101.67,12.86,89.48,10.08Z"/><path id="top_cap" class="cls-16" d="M70.12,6.72c1.11-4.83,9.1-6.34,11.23,0C78.79,7.51,71,7.54,70.12,6.72Z"/><path id="right_strap" class="cls-16" d="M80,38.18s4.88,6.47,5,9.18c0,0-25.32-.86-27.2-1.35-3.44-.62-5.38-7.15-.79-8.72A162.09,162.09,0,0,1,80,38.18Z"/><path id="left_strap" class="cls-16" d="M52.55,37.17a8.11,8.11,0,0,0,.23,8.57c-.67.36-1.38.19-2.65-.11-.55-.27-.48-8.61.83-8.36Z"/><path class="cls-17" d="M56.67,41.55a1.25,1.25,0,1,1,2.5,0A1.25,1.25,0,1,1,56.67,41.55Z"/><path class="cls-17" d="M62,42a1.25,1.25,0,1,1,2.5,0A1.25,1.25,0,1,1,62,42Z"/><path class="cls-17" d="M67.43,42.39a1.25,1.25,0,1,1,2.5,0A1.25,1.25,0,1,1,67.43,42.39Z"/><path class="cls-17" d="M72.75,42.82a1.25,1.25,0,1,1,2.5,0A1.25,1.25,0,1,1,72.75,42.82Z"/><path class="cls-17" d="M78.07,43a1.25,1.25,0,1,1,2.5,0A1.25,1.25,0,1,1,78.07,43Z"/></g></g></svg>