<svg xmlns="http://www.w3.org/2000/svg" viewBox="0 0 847.36 524.22"><defs><style>.cls-1{fill:#951e1e;}.cls-2{fill:#0a0909;}.cls-3{fill:#121212;}.cls-4{fill:#e59028;}</style></defs><title>SpicyDragonsLogo</title><g id="Layer_2" data-name="Layer 2"><g id="Layer_1-2" data-name="Layer 1"><path class="cls-1" d="M404.68,208.15c-1.53-2.52-4.59-3.82-5.29-6.35,38,12,76.44,20.56,116.35,7.41,5.35-1.58,10.8-2.92,15.51-6.12,15.7-5.87,30.23-14.05,44-23.51,11.34-7.83,23.94-13.42,35.27-21.18,6.35-4.36,13.78-3.41,20.91-3.4,4.06,0,7.24-.81,9.62-4.58,2.17-3.44,5.78-5.49,9.52-7.13,21.15-9.28,36.87-24.18,47-45,2.94-6.05,2.47-12.31,2.36-18.64-.15-8.6,1.84-10,9.83-6.57a36.41,36.41,0,0,0-6-24c-.71-1-1.66-2-2.25-3.06-1.74-3.25-4.89-6.27-2.51-10.41s6.25-1.91,10.24-1.26c-2.56-9.28-8.43-14.89-15.71-19.35-2.34-1.43-4.78-2.7-7.15-4.09-3.25-1.89-4.43-4.83-2.67-8.06s4.88-3.4,8.29-2A19.5,19.5,0,0,1,697,4.49c15.15,12.85,23.61,30.08,31.17,47.83,4.48,10.51,10.27,19.85,19.8,26.55a13.07,13.07,0,0,0,5.58,2.69c10.82,1.71,17.37,8,21,18.34,7.62,21.57,18.63,41.64,29.79,61.45,20.47,36.37,32.76,75.27,39.33,116.22,5.95,37.07,5.79,74.08-9.18,108.9-13.22,30.76-28.25,61-54,84.07-4.52,4-8.86,8.36-14.83,10.08a1.7,1.7,0,0,1-.42-2.47,112.75,112.75,0,0,0,23.26-49.26c4.44-21.71,12.5-42.44,17.57-64,3-12.83.94-25.28.24-37.82-1.66-30-9.2-58.76-20.62-86.42-9.1-22.06-19.47-43.56-32.27-63.77-5-7.86-9.72-15.79-13.12-24.48a34.81,34.81,0,0,0-4-9.89c-3.94-7-8-13.88-11.76-21-3.14-6-6.57-12.47-5.06-19.23,3.07-13.68,2.69-27.29.81-40.93-1-7-2.86-13.84-8.12-19.18,3.4,9.55,6.21,19,5.87,29.32-.37,11.41-.17,22.83-.74,34.25-.51,10.37,1.62,20.83,9.47,27.8,6.1,5.42,9.18,11.68,11.65,18.82-2.91,13.33-2.81,26.88-3,40.41-.26,26-.35,52.05-.82,78.08-.27,14.45-3.56,28.49-7.62,42.29-5.17,17.57-8.43,35.75-15.8,52.63A269.54,269.54,0,0,1,681.58,418C671,432.43,657,443.38,643.05,454.48c-20.9,16.58-43.08,30.36-68.33,39.09-6.88,2.37-13.8,4.41-21.38,4.1.4-3.11,2.63-3.12,4.19-4,13.74-7.59,26.62-16.1,36.64-28.66C610,445.17,629,428.14,645,408.37c6.85-8.47,10-18.53,14.3-28.07,18.27-40.17,24.78-82.56,24.64-126.44-.07-20.11-2.65-40.1-1.83-60.2,2.23-8.19,1.08-16.5.85-26.25l-1.86,7.84c-12.29,14.64-22.07,31-30.75,47.86A313.65,313.65,0,0,1,572.85,320c-24.31,20.49-51.57,37-83.79,42.49-27.71,4.73-55.53,9-83.69,3.44-3.91-.77-7.74-1.91-11.61-2.88-.55-1.29-2.91-1.13-2.57-3.32,14.37.17,28.53-.75,42.09-6.11,7.66-3,15.54-5.46,23.23-8.42,11.39-4.39,23.71-6.18,34.43-12.42,7.9-1.95,14.68-5.92,21.28-10.65C540.35,302,564.48,278,583.42,249c3.2-4.92,6.87-9.62,8.87-15.26,4-4.12,6.67-9.12,8.93-14.36,5.82-8.9,9.78-18.67,14.21-28.23l-1.2-1.1-40.81,24.28c-2.33,1-4.68,1.89-7,2.92-21.91,9.71-44.67,16.65-68.55,18.8-30.58,2.74-58.22-6.7-84.11-22.2C410.7,212,407.71,210.05,404.68,208.15ZM706.14,99.43c-7.56,12.87-16.34,24.91-23.44,38-2.64,4.86-3.23,10.43-3.24,16,0,2.6.35,3.17,3.08,6.18-1.17-10.85,2.83-19.39,8.93-27.77A82.6,82.6,0,0,0,706.14,99.43Z"/><path class="cls-2" d="M171.09,432.24l-4,7.45c11.32-2.41,21.83-3,30.69-9.21,2.37-1.66,2.62-5.94,6.44-6.23,1.72-.14,5.15-3.89,4.67,2-.11,1.35,1.63,1.31,3,.92A73.1,73.1,0,0,1,236,424.3c7.17.48,14.27,2.1,21.44,2.62,16.08,1.18,32.11,3.69,48.26,3.22,12.15-.35,24.27-1.79,36.4-2.84,8.31-.72,16.63-1.45,24.26-5.39,1.73-.89,3.05,1,4.52,1.6,5.51,2.35,10.92,2.6,15.84-1.12,2.15-1.63,3.75-.36,5.19.38,13.42,6.86,27.68,9.24,42.56,8.16a17.42,17.42,0,0,1,7.19,1.25c4.12,1.47,7.55.8,11.49-.67a27.69,27.69,0,0,1,18.56-.29c3.29,1.09,7.09,1.25,8.89-.75,3.86-4.28,7.34-2.05,11.2-1a9.09,9.09,0,0,0,11.24-6c1.89-5.93,8.67-10.56,14.5-9.91,3.37.38,1.67,3.23,2.51,5.48,5.65-5.12,8.41,1.45,12.2,3.2,4.92,2.28,9.45,2.75,14.29.95.85-.31,1.82-.67,2.22-.26,6.54,6.69,12.43,1.9,18.51-1.13,1.43,2.76-3,5.26-.21,7.8s6.51,2.44,10.17,2.23c10.79-.61,21.59-1.12,32.3,1,2,.39,5.17,0,5.4,2.2.28,2.53-2.91,3.18-5,4.11-15.53,7.1-32.19,10.21-48.82,12.93-14.41,2.36-29.05,3.41-43.61,4.74-18.34,1.67-36.81,2.13-55,5.51-8.7,1.61-16.72,6.56-26.06,5.29-.92-.12-2.37,1.05-3,2-1.83,2.64-2.94,2.16-4.59-.27-2.7-4-6.17-3.87-10.22-1.63-13,7.23-27.23,7-41.46,5.68-3-.28-5.38.81-7.75,1.93a49.72,49.72,0,0,1-16.8,4.72c-2.11.19-4.16.24-5-1.61-3.07-6.68-7.47-7.44-14.19-5.15-5.54,1.89-11.53-.16-17.25-1.42-4.28-.93-7.83-.4-12.1,2.29-11.74,7.41-23.77,15.48-39,10.85-2-.61-4.21-.92-5.62-2.59-3.39-4-6.76-7.55-12.69-4.38-.8.42-2.85.41-3.35-.95-.6-1.62.67-2.71,2.1-3.33,1.16-.5,2.43-1.39,3.53-1.24,8.17,1,8.5-3.77,7.45-10.07-4.07,1.35-7.86,6.6-12.54,1.39a2.29,2.29,0,0,0-1.45.73c-3.34,4.94-10,6.26-12.81,11.83-1.62,3.18-4.48,2.47-6.9,1-4.06-2.54-7.89-5.42-13.16-3.85-1.36.4-2.33-.88-3.07-1.79-3.27-4-7.93-3.88-11.48-2.09-4,2-5.53.51-7.41-2.54-2.26,1.43-3.77,7.21-7.18,1.42-.3-.51-2.44-.22-3.6.12-11.75,3.43-23.69,3.83-35.88,3.75S117.42,477.2,106.86,483c-9.35,5.16-20.11,8.34-27.13,17.24-1.07,1.36-2.29.69-3.23-.08s-.23-2,.23-2.78,1.54-1.37,2.17-2.17a3.12,3.12,0,0,0,.67-3.6c-9.19,4.43-18.45,8.68-27.51,13.33C42.18,510,32.39,515.32,23.93,522.7c-.91.8-1.9,2.66-3.54.53-1.28-1.66-.38-2.19.82-3.3,19.92-18.48,40.55-36.18,64.19-49.68a147.14,147.14,0,0,1,35.33-14.78c12.56-3.33,25-7.61,36.13-14.7,3.78-2.41,6.94-5.77,10.53-8.51,1-.77,2.57-2.7,3.85,0Z"/><path class="cls-2" d="M601.22,219.36c-2.26,5.24-4.89,10.24-8.93,14.36-7.08,1.69-14.24,3.12-21.24,5.13-14.66,4.2-29.78,4.23-44.78,5.29s-30,.17-44.56,2.72c-11,1.92-22.64,2.39-32.78,5.79-7.68,2.57-14.84-.25-21.32,2.29-11.2,4.38-22.84,3.26-34.25,4.59-3.18.38-6.15.76-8.87,2.26-5.64,3.11-11.5,1.32-17.22.77-2.15-.21-2.61-2.75-2.56-5.1.06-3.17-2.18-6-5-5.36-8.06,2-15.75-1.7-23.64-.64-1.48.2-3.68-1.15-4.2,1.39-1.65,8-8.36,9.32-14.57,11.11-8.59,2.48-17.23,4.93-26.34,4.23-3.42-.26-7.21-.65-9-3.68-3.44-5.83-7.66-3.93-12.71-1.8.66-5.38,5.62-5.16,8.37-7.11,2.56-1.81,6.5-2.89,5.29-6.44-1.32-3.89-4.94-5.12-9.3-3.42-8.06,3.13-15.68,6.73-19.7,15-1.26,2.61-2.52,2.37-4.08.39-.78-1-1.52-2-2.33-3-4.64-5.55-9.69-8.53-17.51-5.64-3.88,1.44-9.32,5.11-13-1.82-.4-.76-5.32.91-8.16,1.41-7.47,1.32-15,2.61-23.15,4,1,2,3.59,2.08,3.46,4.46-7.34,2.87-15.53,3-23.13,3.53-14.08,1-26.55,5.48-38.71,11.89a60.83,60.83,0,0,1-18.81,6.53C93.86,284.94,82,293.8,69.26,300.72a190.9,190.9,0,0,0-27.51,18.79c-1.64,1.31-5,2-3,5.65.54,1-1,2-2.93,1-3.13-1.62-6.25-1.64-10.47-.67,3-7.4,9.34-11.07,13.19-16.62,3-4.35,7.77-6.62,12.12-9.36C79.45,281.35,108.1,263,138.19,247c15.42-8.17,31-16,48.33-19.61,1.33-.27,2.4-1.61,3.71-2.2,2.07-.92,4.29-5.15,6.36.2.41,1.06,1.89-.1,2.86-.1,8.76,0,15.91-3.36,21.75-9.81,2-2.22,4.36-4,4.85,1,.25,2.45,1.83,2,3.15,1.87,4.73-.41,9.22-.25,13.62-3.76,4.15-3.3,10.5-2.6,15.75-2.52a253.86,253.86,0,0,1,29.73,2.64c6.3.85,12.52.14,18.77.33,13,.39,26.05.65,39.07.93,5.92.13,11.81-.14,17.29-2.74,1.79-.85,3.24-1.49,5.13,0,5.3,4.09,9.64,1.26,12.83-2.84,2.83-3.63,4.81-4.65,8.55-1.26,1.9,1.73,4.89,2.22,7.29,3.48,5,2.63,7.47,1.26,7.45-4.43,3,1.9,6,3.84,9.09,5.68,25.89,15.5,53.53,24.94,84.11,22.2,23.88-2.15,46.64-9.09,68.55-18.8,2.31-1,4.66-1.95,7-2.91,4.54,2.34,9.39,4.55,14.24,1.81,4.55-2.57,7.63-1.19,10.82,2A8.61,8.61,0,0,0,601.22,219.36Z"/><path class="cls-2" d="M490.94,332.8c-10.72,6.24-23,8-34.43,12.42-7.69,3-15.57,5.4-23.23,8.42-13.56,5.36-27.72,6.28-42.09,6.11-.34,2.19,2,2,2.57,3.32-3.44.06-6.82-.16-9.25,3.25-1.34,1.87-4.29,2.14-5.63.6-6.14-7.14-12.68-2.43-19.17-1.16-6.76,1.33-13.65,2.17-19.95,5.16-3.07,1.46-2.53-2.43-4.51-2.6-3.47-.3-6.65,1-9.84,1.79A113.88,113.88,0,0,1,287.55,373c-3.67-.31-7.32-.05-9.74-4.09-1.31-2.17-4.63-1.45-7-2.07s-6.07,1.49-6.21-3.61c-.05-1.72-2.58-.85-3.66,0-2.2,1.85-5,3.57-6.11,6-2.6,5.79-5.33,4-8.4.87-2.84-2.91-5.08-4.69-6.92,1-.93,2.86-2.82,4.63-4.61,0-1.46-3.79-5.32-4.4-8.81-5.1s-7.18-.63-10.47-1.8-6-1.69-8,1.85c-1.35,2.37-3.59,1.31-5.11.8-11.53-3.85-20.8,2-30.28,6.82-2.32,1.19-4.2,3.24-6.54,4.38-5.15,2.49-9,5.32-7.84,12.11a8.56,8.56,0,0,1-2.83,8c-2.49,2.15-4.43,3.63-5.56-.95-.35-1.43-1.44-.88-2.37-1.13a29.24,29.24,0,0,0-21.19,2.12c-1.35.68-2.33,1.91-3.54.14-2.84-4.15-5.33-2.41-8,.29-1.16,1.19-2.91,1.85-4,3.11-2.49,3-4.72,4.54-6.74-.64-2,3.54-1.78,7.52-4.84,9.88-6.35-7.23-11.38-7.52-23.29-1.23-1.38.72-2.6,2.76-4.12.9s.53-2.94,1.54-4.22c9.65-12.29,21.19-22.61,33.29-32.39a209.32,209.32,0,0,1,48.94-29.44c6.87-3,14-5.37,21-7.91a9.34,9.34,0,0,0,5.34-4.13c3-5.31,17.48-10.93,22.57-7.88,2.64,1.58,4.26,1.22,6-.08a51.62,51.62,0,0,1,30-11c2.56-.09,5-1.7,7.58-2.61,5.52-2,10.64-5.81,17.12-2,2.1,1.24,4.58-1.43,6.54-2.93,1.62-1.25,3.69-2.48,5-.81,1.08,1.38-.61,2.74-2.31,3.56a3.12,3.12,0,0,0-1.86,3.59c2.7-1,3.38,4.4,6.54,2.06,2.44-1.81,4-2.36,6.39,1,3.25,4.61,9.48,3.88,12-1s6.23-7.74,11.54-8.14c7.12-.55,13.49-4.44,20.81-4.17,3.68.14,6.67.77,8.27,4.42,1.28,3,3.88,4.32,6.68,5.18,1.65.51,2.83,1.26,2.66,2.92s-2,1.08-3.09,1.46c-2.55.91-6.2.33-5.45,5,.88,5.44,2.05,5.66,8.71,1.21,1.57.91.7,2.61,1.16,3.88,1.7,4.68,4.18,3,5.8.41,2.95-4.66,4.54-3.23,7.13.41,4.24,6,9.87,9.76,17.79,7.85,2.51-.61,6,3.29,7.67-1.7.23-.71,1.77,0,1.93.77,1.8,9.23,9.14,6.22,14.81,6.7,11.59,1,21.9-4.19,33.34-7-5.1-3.43-10.37-4.8-15.76-5.76-1.68-.3-3.77-.45-3.5-2.41.32-2.35,2.34-.77,3.58-.62,11,1.39,21.71-.68,32.25-3.25,4.68-1.14,7-.5,7.8,4.25.81,5.09,3.46,5.45,8,4.15C476.72,327.94,483.72,331.74,490.94,332.8Z"/><path class="cls-3" d="M345.79,78.23C346,94.9,345.72,95.46,330.2,98c-12.89,2.1-25.89,3.57-38.81,5.49-4.81.71-5.95-1.11-5.18-5.6,3.11-18.09,6.44-36.18,3.67-54.66-.39-2.56.72-4,3-4.77,7-2.35,14.1-5,21.42-5.2,8.65-.3,14.47,6,20.27,11.44C344.56,54.08,345.21,66.64,345.79,78.23Zm-15.52-2.14c-2.28-10.47-6-20.18-15.33-26.57-3.1-2.11-6.31-2.07-7.58,2C303.7,63.15,303.73,75,306,87c.5,2.66,1.48,3.43,4.31,2.26a131,131,0,0,0,17.58-8.47C329.74,79.6,330.56,78.25,330.27,76.09Z"/><path class="cls-3" d="M52.9,31.55c8.85-.51,8.88-.5,6.67,6.87-1.27,4.23-1.48,9.92-4.35,12.21s-7.3-2.71-11.47-3.12c-.2,0-.4-.16-.6-.18-2.6-.17-6.22-2.72-7.51.12s2.79,4.17,4.87,5.68c9.58,7,16.91,15.86,22.79,26,2.41,4.17.35,17.09-3.09,20.2-1.06,1-2.31.83-3.56.92-17.29,1.2-34.59,2.25-51.85,3.71-5.93.51-5.48-1.79-3.35-5.58,2.89-5.15,6-10.17,8.62-15.47,1.45-3,2.86-3.36,5.87-2.29,6.35,2.26,12.9,4,19.33,6,3.08,1,6.24.81,8.32-1.39,2.55-2.68-.61-5-1.76-7.25-6-11.58-15.14-19.77-27.92-23.1C10.36,54,10.12,53.25,11.44,50,15.49,40.06,20,31.76,33.29,33.15,40.09,33.86,47.15,32.09,52.9,31.55Z"/><path class="cls-3" d="M498.75,41.24c-2.78,22-3,42.89-2.93,63.79,0,2.4-1.29,3.33-3.15,4.12a183.21,183.21,0,0,1-32,10,4.41,4.41,0,0,1-4.86-1.54c5.21-3.53,10.66-6.66,15.39-10.64,2.75-2.31,7.33-4.16,5.83-9.44-.7-2.47-1.53-3.75-4.28-2-3,1.93-6.56,3.14-9.32,5.35-5.2,4.18-8.16,1.7-11.07-2.74-7.18-11-5.31-27.7,4.92-40.67a60.67,60.67,0,0,1,14.52-13.14c3.32-2.17,5.85-2.7,6.43,2.3.71,6,3.4,5.21,7.29,2.5S493.48,44.34,498.75,41.24ZM462.67,80c-.07,7.8,3.84,10.22,10.71,6.61,9.66-5.08,11.61-11.48,6.75-22-.39-.84-.74-1.31-1.75-1.32C473.88,63.22,462.71,75.07,462.67,80Z"/><path class="cls-3" d="M594,102.58c6.94-11.22,12-22.43,14-34.94.44-2.75.9-5.5-.18-8.13-1.54-3.76-3.94-6-8.32-3.88-.19.09-.4.14-.6.22-14.22,5.77-15.22,7.45-13.82,22.91a64.85,64.85,0,0,1,.24,7c-.23,15.07-.07,11.6-13,16.64-2.73,1.06-4.4.76-4.21-2.86.82-15.84,1.29-31.7-.28-47.53-.25-2.59,1-3.95,3.06-4.9,2.88-1.3,5.82-2.49,8.66-3.87,4-1.94,6.85-2.36,6.17,3.68-.34,3,1.49,3.14,3.55,1.94,3.47-2,7-4,10.23-6.35,3.73-2.69,6.33-2.52,9.65,1.16,15.4,17.07,15.08,16.88,10.19,40.68-1.83,8.92-5,14.47-14.68,15.15C601,99.72,597.52,101.5,594,102.58Z"/><path class="cls-3" d="M440.19,70.31c0,7.38-.27,14.77.09,22.12.27,5.38-2,7.87-7.1,7.79-3.27,0-8.25,5-9.28-2.94-.16-1.17-2.22-.23-3.4-.08-6.54.83-12.63,3.22-18.69,5.62-3.89,1.54-5.52.37-6.61-3.69-6-22.26,2.27-39.53,18.4-54.24,1.7-1.55,3.77-3.13,5.49-1.35,5.23,5.37,10.49,2.74,15.64.48,4.62-2,6.47-1.27,6.25,4.12-.3,7.38-.08,14.78-.08,22.17Zm-15.76.21c0-2.53-.1-5.06,0-7.58.21-4.7-3.29-4.69-5.09-2.67-5.23,5.89-11.27,11.57-12.29,20-.62,5.13,2.88,7.62,7.84,6C424.42,83.16,424.42,83.16,424.43,70.52Z"/><path class="cls-3" d="M88.12,50.43a3.15,3.15,0,0,0,1.19-.28c8.77-6.48,13.92-5.7,20,3.47,7.13,10.82,4.82,23.22,5.34,35.1.1,2.34-2.53,2.45-4.27,3-7,2.4-13.86,5.06-20.94,7.09-4.53,1.3-6.26,3.21-4.46,7.94.94,2.48,1,5.29,1.6,8.8-5.53-4-10.39-7.6-15.34-11.07-2.33-1.63-2.13-4-2.08-6.27.41-16.24,1.55-32.45.81-48.7-.1-2.21.55-3.61,3-4,2.27-.35,4.49-1,6.75-1.48C88.16,42.45,88.17,42.47,88.12,50.43ZM82.9,80.15c.15,6.78,2.21,8.23,7.69,5.75,3.24-1.47,6.36-3.22,9.54-4.83,1.34-.67,2.48-1.36,2.62-3.16.42-5.36-5.55-15-10.6-16.83-3-1.06-4.82-.55-6.21,3C83.78,69.46,84.31,75.21,82.9,80.15Z"/><path class="cls-3" d="M540.08,42.54c4.18-1.07,5.29.4,6.4,2.07,2,3,3.63,6.39,6.22,8.75,9.42,8.57,8.27,18,4.37,28.83-6.09,17-5.72,16.32-23,19.67-9.66,1.88-15.83.62-19.77-8.58a14.71,14.71,0,0,0-3.66-5.12c-6.46-5.65-6.22-11.8-2.68-19,3-6.2,5-12.91,7.47-19.4.66-1.76.95-3.79,3.39-4,.42,0,.85,0,1.27-.1Zm7.07,26.09c.13-3.84-12.06-12.71-15.33-11.46a5.32,5.32,0,0,0-2.22,2c-3.07,4.51-6.21,9-9,13.66-3.06,5.1,2.16,7.42,4.24,10.56S529.27,90.21,534,90a2.67,2.67,0,0,0,1.54-1C540.91,82.9,543.31,75.16,547.15,68.63Z"/><path class="cls-3" d="M226.23,76.14c7.36-6.77,8.89-15.8,12.2-23.92,1.84-4.51,12.48-9.44,16.61-7.16,2.55,1.42.32,3.39-.28,4.86-6.42,15.59-13.25,31-19.34,46.74-3,7.68-8.16,12.61-15.18,16.11-2.68,1.34-14.09-2.65-15.23-5.21-.75-1.66.68-2.2,1.57-2.94,3.72-3.09,9.32-5.43,10.2-9.94s-4.06-8.44-6.08-12.81a193.5,193.5,0,0,1-10.64-28.39c-1.45-5.07.38-6.52,5-6.53a60,60,0,0,0,14.54-2.3C221.19,55.24,221.74,66,226.23,76.14Z"/><path class="cls-3" d="M671.87,63.35c-4.83-1.84-9.3-3.53-13.76-5.26-2.51-1-5.2-1.73-6.62,1.27s1.54,3.84,3.41,5c2.15,1.35,4.36,2.58,6.51,3.94,10,6.29,10.46,7.61,7.72,18.88a48.27,48.27,0,0,0-1,6.24,4.19,4.19,0,0,1-4,4.13c-10.84,1.78-21.65,3.69-32.49,5.44-1.78.29-4.09,1.08-5.26-.86-.94-1.56.58-3.19,1.29-4.66,2-4.17,3.47-8.92,6.47-12.24,3.91-4.33,7.85,3.06,12.33,1.33.89-.34,2.08.15,3.14.14,2.09,0,4.52.3,5.4-2.22.74-2.12-1-3.62-2.28-4.9A33,33,0,0,0,635,70.4c-3.74-.66-4.49-2.42-3.28-5.66,1.55-4.15,3.21-8.27,4.55-12.49.9-2.84,2.61-3.83,5.5-4.22,7.11-1,14.2-2.17,21.21-3.69,4-.86,6.17.1,6.51,4.23C669.93,53.36,672.27,57.86,671.87,63.35Z"/><path class="cls-3" d="M195.31,71.34c1.38,9.39-1,16.9-1.86,24.53-.33,2.82-2.54,2.6-4.25,2.68-8.69.43-17.18,2.13-25.65,3.88-3,.61-4.09-.41-5.07-3.08-2.3-6.34-4.87-12.58-7.57-18.76a8.35,8.35,0,0,1-.15-6.08,228.57,228.57,0,0,1,7.9-23.33c1-2.49,2.09-3.87,4.94-3.8a161.41,161.41,0,0,0,27.16-2c3.39-.49,4.48.4,3.44,3.56-1.78,5.41-3.73,10.76-5.52,16.16-.71,2.15-1.71,2.73-3.63,1.25a10.81,10.81,0,0,0-2.75-1.55c-3.61-1.36-7.36-4.92-11.07-2.36-4,2.78-4.41,8-4.39,12.65s2.33,8.51,3.86,12.65c1,2.8,3.06,2.15,5.2,1.21,5.39-2.36,9.1-6.81,13.29-10.64A89.13,89.13,0,0,0,195.31,71.34Z"/><path class="cls-3" d="M383,76.54c-1-3.12-1.25-4.82-2-6.3-1.45-2.9-3.87-4.52-7.19-3.85s-4.24,3-4,6.17c.55,7.8.74,15.64,1.52,23.42.37,3.65-.91,5.1-4.25,5.3-19.21,1.09-16.27,5-13.14-13.17,1.85-10.75,2.81-21.39.82-32.13-1-5.42.53-8.59,6.31-9a3.5,3.5,0,0,0,.63-.12c10.13-2.64,10.13-2.64,9.83,8,4.13-.51,5.65-4.15,7.85-6.57,2.49-2.74,4.64-2.33,7.1-.55,7.1,5.14,7.79,8.44,3.52,16.13C387.84,67.67,385.74,71.53,383,76.54Z"/><path class="cls-2" d="M142.46,51.5c1.1,6.11-.1,12.17-.56,18.22-.69,9.07-1.42,18.14.08,27.17.45,2.67.09,4.09-2.85,4.07-.42,0-.83.16-1.25.2-4.83.48-10.85,2.92-14.2.91-4.27-2.55-.3-8.76-.2-13.36.2-9.7,1.86-19.39.74-29.12-.54-4.77,3.3-5.25,6-6.9C134.45,53.59,138.58,53.82,142.46,51.5Z"/><path class="cls-4" d="M142.46,51.5c-3.88,2.32-8,2.09-12.21,1.19a79.64,79.64,0,0,1-7.55-3.17c-6.7-3.63-8.59-9-5.31-15.83a32.85,32.85,0,0,0,2.53-9.75c2.41.53,2.33,2.85,3.33,4.31s1.62,2.84,3,5.33c2.28-7.64,4.27-14.28,6.25-20.91,1.56,5.59-.28,12,4.85,16.82l6.24-9.28-.09-.09c.42,6.45,1.18,12.77,3.57,18.91C149.07,44.17,146.64,48.31,142.46,51.5Z"/><path class="cls-3" d="M531.25,203.09c-4.71,3.2-10.16,4.54-15.51,6.12,1.11-5.36,10.7-11.79,15.6-10.08C533.81,200,530.6,201.71,531.25,203.09Z"/><polygon class="cls-4" points="143.59 20.21 143.98 19.96 143.51 20.12 143.59 20.21"/><path class="cls-2" d="M171.24,432.23l-1.18-.81.64-.73c.11.51.22,1,.36,1.54Z"/></g></g></svg>